<svg width="16" height="16" viewBox="0 0 16 16" fill="none" xmlns="http://www.w3.org/2000/svg">
<g clip-path="url(#clip0_3393_895)">
<path d="M7.99707 0.633789C10.7432 2.79204 13.1987 5.24853 15.3662 8.00195C13.2561 10.7366 10.8019 13.1911 8.00098 15.3652C5.25309 13.2041 2.79924 10.7481 0.634766 7.99805C2.80685 5.2174 5.2589 2.76171 7.99707 0.633789Z" stroke="#7C3AED"/>
<path d="M8.00001 3.80664L8.47015 5.07583C8.891 6.21233 9.78673 7.10901 10.9242 7.52986L12.1934 8.00001L10.9242 8.47015C9.78768 8.891 8.891 9.78673 8.47015 10.9242L8.00001 12.1934L7.52986 10.9242C7.10901 9.78768 6.21328 8.891 5.07583 8.47015L3.80664 8.00001L5.07583 7.52986C6.21233 7.10901 7.10901 6.21328 7.52986 5.07583L8.00001 3.80664Z" fill="#7C3AED"/>
</g>
<defs>
<clipPath id="clip0_3393_895">
<rect width="16" height="16" fill="white"/>
</clipPath>
</defs>
</svg>
