<svg width="14" height="14" viewBox="0 0 14 14" fill="none" xmlns="http://www.w3.org/2000/svg">
<path d="M6.99707 0.633789C9.36799 2.50203 11.49 4.6256 13.3662 7.00293C11.5398 9.36305 9.41912 11.4839 7.00195 13.3652C4.62956 11.4946 2.50828 9.37228 0.634766 6.99805C2.51453 4.59788 4.63355 2.47567 6.99707 0.633789Z" stroke="white"/>
<path d="M7.00025 3.33008L7.41162 4.44062C7.77987 5.43505 8.56364 6.21965 9.5589 6.5879L10.6694 6.99927L9.5589 7.41065C8.56447 7.77889 7.77987 8.56266 7.41162 9.55792L7.00025 10.6685L6.58887 9.55792C6.22063 8.56349 5.43686 7.77889 4.4416 7.41065L3.33105 6.99927L4.4416 6.5879C5.43603 6.21965 6.22063 5.43588 6.58887 4.44062L7.00025 3.33008Z" fill="white"/>
</svg>
