<svg width="16" height="16" viewBox="0 0 16 16" fill="none" xmlns="http://www.w3.org/2000/svg">
<g clip-path="url(#clip0_4942_50443)">
<path d="M16 8C13.7346 10.9943 11.0682 13.6616 8 16C4.99242 13.6768 2.32701 11.0095 0 8C2.33649 4.9545 5.00095 2.28626 8 0C11.0047 2.31943 13.6701 4.98768 16 8Z" fill="#FAFAFA"/>
<path d="M8.00001 3.80664L8.47015 5.07583C8.891 6.21233 9.78674 7.10901 10.9242 7.52986L12.1934 8.00001L10.9242 8.47015C9.78768 8.891 8.891 9.78673 8.47015 10.9242L8.00001 12.1934L7.52986 10.9242C7.10901 9.78768 6.21328 8.891 5.07583 8.47015L3.80664 8.00001L5.07583 7.52986C6.21233 7.10901 7.10901 6.21328 7.52986 5.07583L8.00001 3.80664Z" fill="black"/>
</g>
<defs>
<clipPath id="clip0_4942_50443">
<rect width="16" height="16" fill="white"/>
</clipPath>
</defs>
</svg>
