<svg width="16" height="16" viewBox="0 0 16 16" fill="none" xmlns="http://www.w3.org/2000/svg">
<g clip-path="url(#clip0_5027_4505)">
<path d="M7.99707 0.842773C10.6586 2.94722 13.044 5.33511 15.1572 8.00391C13.0993 10.6532 10.715 13.0373 8.00195 15.1562C5.3389 13.0493 2.95397 10.6632 0.84375 7.99805C2.96111 5.30367 5.3438 2.91793 7.99707 0.842773Z" fill="#581C87" stroke="#A855F7" stroke-width="1.33"/>
<path d="M8.00001 3.80664L8.47015 5.07583C8.891 6.21233 9.78673 7.10901 10.9242 7.52986L12.1934 8.00001L10.9242 8.47015C9.78768 8.891 8.891 9.78673 8.47015 10.9242L8.00001 12.1934L7.52986 10.9242C7.10901 9.78768 6.21328 8.891 5.07583 8.47015L3.80664 8.00001L5.07583 7.52986C6.21233 7.10901 7.10901 6.21328 7.52986 5.07583L8.00001 3.80664Z" fill="#F3E8FF"/>
</g>
<defs>
<clipPath id="clip0_5027_4505">
<rect width="16" height="16" fill="white"/>
</clipPath>
</defs>
</svg>
